<?xml version="1.0" encoding="UTF-8"?>
<svg id="Layer_2" data-name="Layer 2" xmlns="http://www.w3.org/2000/svg" viewBox="0 0 31 31">
  <defs>
    <style>
      .cls-1 {
        fill: #4c6099;
      }

      .cls-1, .cls-2, .cls-3, .cls-4, .cls-5, .cls-6 {
        stroke-width: 0px;
      }

      .cls-2 {
        fill: #282633;
      }

      .cls-3 {
        fill: #85f2ce;
      }

      .cls-4 {
        fill: #3b3659;
      }

      .cls-5 {
        fill: #95e5d8;
      }

      .cls-6 {
        fill: #6bc;
      }
    </style>
  </defs>
  <g id="Body">
    <rect class="cls-3" x="1" y="11" width="4" height="5"/>
    <rect class="cls-5" x="8" y="11" width="14" height="8"/>
    <rect class="cls-3" x="24" y="12" width="4" height="4"/>
    <rect class="cls-1" x="2" y="5" width="9" height="9"/>
    <rect class="cls-1" x="19" y="6" width="8" height="8"/>
    <rect class="cls-3" y="16" width="4" height="4"/>
    <rect class="cls-3" x="26" y="15" width="3" height="3"/>
    <rect class="cls-4" x="1" y="19" width="5" height="5"/>
    <rect class="cls-4" x="27" y="16" width="4" height="4"/>
    <rect class="cls-6" x="10" y="19" width="9" height="4"/>
    <rect class="cls-6" x="10" y="19" width="9" height="4"/>
    <rect class="cls-1" x="15" y="21" width="9" height="3"/>
    <rect class="cls-1" x="20" y="24" width="4" height="4"/>
    <rect class="cls-3" x="20" y="28" width="6" height="3"/>
    <rect class="cls-1" x="11" y="21" width="4" height="6"/>
    <rect class="cls-1" x="8" y="25" width="6" height="3"/>
    <rect class="cls-3" x="5" y="25" width="3" height="6"/>
    <rect class="cls-5" x="22" y="14" width="1" height="4"/>
    <rect class="cls-5" x="7" y="14" width="1" height="4"/>
    <rect class="cls-6" x="9" y="19" width="1" height="3"/>
  </g>
  <g id="Head">
    <rect class="cls-3" x="10" y="2" width="11" height="11"/>
    <rect class="cls-6" x="11" y="10" width="11" height="3"/>
    <rect class="cls-6" x="13" y="5" width="9" height="1"/>
    <rect class="cls-2" x="14" y="6" width="1" height="2"/>
    <rect class="cls-2" x="19" y="6" width="1" height="2"/>
    <rect class="cls-4" x="20" y="9" width="2" height="1"/>
    <rect class="cls-4" x="12" y="9" width="2" height="1"/>
    <rect class="cls-4" x="10" y="2" width="11" height="1"/>
    <rect class="cls-4" x="10" y="3" width="2" height="3"/>
    <rect class="cls-4" x="11" y="1" width="10" height="1"/>
    <rect class="cls-4" x="17.5" width="3.5" height="1"/>
  </g>
</svg>